G04 #@! TF.FileFunction,Soldermask,Top*
%FSLAX46Y46*%
G04 Gerber Fmt 4.6, Leading zero omitted, Abs format (unit mm)*
G04 Created by KiCad (PCBNEW 4.0.6) date 05/07/18 15:35:04*
%MOMM*%
%LPD*%
G01*
G04 APERTURE LIST*
%ADD10C,0.100000*%
%ADD11R,1.010000X2.400000*%
%ADD12R,3.080000X4.000000*%
%ADD13R,1.400000X3.900000*%
%ADD14R,1.900000X3.800000*%
%ADD15C,3.600000*%
G04 APERTURE END LIST*
D10*
D11*
X132000000Y-110800000D03*
X131000000Y-110800000D03*
X130000000Y-110800000D03*
X129000000Y-110800000D03*
X128000000Y-110800000D03*
X127000000Y-110800000D03*
X126000000Y-110800000D03*
X125000000Y-110800000D03*
X124000000Y-110800000D03*
X123000000Y-110800000D03*
X122000000Y-110800000D03*
X121000000Y-110800000D03*
X120000000Y-110800000D03*
X119000000Y-110800000D03*
X118000000Y-110800000D03*
D12*
X134990000Y-108000000D03*
X115010000Y-108000000D03*
D13*
X150250000Y-111625000D03*
X148250000Y-111625000D03*
X146250000Y-111625000D03*
D14*
X152600000Y-105875000D03*
X143900000Y-105875000D03*
D11*
X118000000Y-124200000D03*
X119000000Y-124200000D03*
X120000000Y-124200000D03*
X121000000Y-124200000D03*
X122000000Y-124200000D03*
X123000000Y-124200000D03*
X124000000Y-124200000D03*
X125000000Y-124200000D03*
X126000000Y-124200000D03*
X127000000Y-124200000D03*
X128000000Y-124200000D03*
X129000000Y-124200000D03*
X130000000Y-124200000D03*
X131000000Y-124200000D03*
X132000000Y-124200000D03*
X133000000Y-124200000D03*
X134000000Y-124200000D03*
X135000000Y-124200000D03*
X136000000Y-124200000D03*
X137000000Y-124200000D03*
D12*
X115010000Y-127000000D03*
X139990000Y-127000000D03*
D15*
X105000000Y-105000000D03*
X105000000Y-130000000D03*
X160000000Y-130000000D03*
X160000000Y-105000000D03*
M02*
