G04 #@! TF.FileFunction,Legend,Bot*
%FSLAX46Y46*%
G04 Gerber Fmt 4.6, Leading zero omitted, Abs format (unit mm)*
G04 Created by KiCad (PCBNEW 4.0.6) date 05/08/18 08:07:22*
%MOMM*%
%LPD*%
G01*
G04 APERTURE LIST*
%ADD10C,0.100000*%
%ADD11C,0.300000*%
G04 APERTURE END LIST*
D10*
D11*
X102076190Y-111471429D02*
X102000000Y-111547619D01*
X101771428Y-111623810D01*
X101619047Y-111623810D01*
X101390476Y-111547619D01*
X101238095Y-111395238D01*
X101161904Y-111242857D01*
X101085714Y-110938095D01*
X101085714Y-110709524D01*
X101161904Y-110404762D01*
X101238095Y-110252381D01*
X101390476Y-110100000D01*
X101619047Y-110023810D01*
X101771428Y-110023810D01*
X102000000Y-110100000D01*
X102076190Y-110176190D01*
X102685714Y-111166667D02*
X103447619Y-111166667D01*
X102533333Y-111623810D02*
X103066666Y-110023810D01*
X103600000Y-111623810D01*
X104133333Y-111623810D02*
X104133333Y-110023810D01*
X104666667Y-111166667D01*
X105200000Y-110023810D01*
X105200000Y-111623810D01*
X105961904Y-110785714D02*
X106495238Y-110785714D01*
X106723809Y-111623810D02*
X105961904Y-111623810D01*
X105961904Y-110023810D01*
X106723809Y-110023810D01*
X108323809Y-111623810D02*
X107790476Y-110861905D01*
X107409523Y-111623810D02*
X107409523Y-110023810D01*
X108019047Y-110023810D01*
X108171428Y-110100000D01*
X108247619Y-110176190D01*
X108323809Y-110328571D01*
X108323809Y-110557143D01*
X108247619Y-110709524D01*
X108171428Y-110785714D01*
X108019047Y-110861905D01*
X107409523Y-110861905D01*
X108933333Y-111166667D02*
X109695238Y-111166667D01*
X108780952Y-111623810D02*
X109314285Y-110023810D01*
X109847619Y-111623810D01*
X111523810Y-111166667D02*
X112285715Y-111166667D01*
X111371429Y-111623810D02*
X111904762Y-110023810D01*
X112438096Y-111623810D01*
X112971429Y-111623810D02*
X112971429Y-110023810D01*
X113885715Y-111623810D01*
X113885715Y-110023810D01*
X114647619Y-111623810D02*
X114647619Y-110023810D01*
X115028572Y-110023810D01*
X115257143Y-110100000D01*
X115409524Y-110252381D01*
X115485715Y-110404762D01*
X115561905Y-110709524D01*
X115561905Y-110938095D01*
X115485715Y-111242857D01*
X115409524Y-111395238D01*
X115257143Y-111547619D01*
X115028572Y-111623810D01*
X114647619Y-111623810D01*
X117466667Y-111623810D02*
X117466667Y-110023810D01*
X118000001Y-111166667D01*
X118533334Y-110023810D01*
X118533334Y-111623810D01*
X119600000Y-110023810D02*
X119904762Y-110023810D01*
X120057143Y-110100000D01*
X120209524Y-110252381D01*
X120285715Y-110557143D01*
X120285715Y-111090476D01*
X120209524Y-111395238D01*
X120057143Y-111547619D01*
X119904762Y-111623810D01*
X119600000Y-111623810D01*
X119447619Y-111547619D01*
X119295238Y-111395238D01*
X119219048Y-111090476D01*
X119219048Y-110557143D01*
X119295238Y-110252381D01*
X119447619Y-110100000D01*
X119600000Y-110023810D01*
X120742857Y-110023810D02*
X121657143Y-110023810D01*
X121200000Y-111623810D02*
X121200000Y-110023810D01*
X122190476Y-111623810D02*
X122190476Y-110023810D01*
X123257143Y-110023810D02*
X123561905Y-110023810D01*
X123714286Y-110100000D01*
X123866667Y-110252381D01*
X123942858Y-110557143D01*
X123942858Y-111090476D01*
X123866667Y-111395238D01*
X123714286Y-111547619D01*
X123561905Y-111623810D01*
X123257143Y-111623810D01*
X123104762Y-111547619D01*
X122952381Y-111395238D01*
X122876191Y-111090476D01*
X122876191Y-110557143D01*
X122952381Y-110252381D01*
X123104762Y-110100000D01*
X123257143Y-110023810D01*
X124628571Y-111623810D02*
X124628571Y-110023810D01*
X125542857Y-111623810D01*
X125542857Y-110023810D01*
X128057143Y-110785714D02*
X128285714Y-110861905D01*
X128361905Y-110938095D01*
X128438095Y-111090476D01*
X128438095Y-111319048D01*
X128361905Y-111471429D01*
X128285714Y-111547619D01*
X128133333Y-111623810D01*
X127523809Y-111623810D01*
X127523809Y-110023810D01*
X128057143Y-110023810D01*
X128209524Y-110100000D01*
X128285714Y-110176190D01*
X128361905Y-110328571D01*
X128361905Y-110480952D01*
X128285714Y-110633333D01*
X128209524Y-110709524D01*
X128057143Y-110785714D01*
X127523809Y-110785714D01*
X129428571Y-110023810D02*
X129733333Y-110023810D01*
X129885714Y-110100000D01*
X130038095Y-110252381D01*
X130114286Y-110557143D01*
X130114286Y-111090476D01*
X130038095Y-111395238D01*
X129885714Y-111547619D01*
X129733333Y-111623810D01*
X129428571Y-111623810D01*
X129276190Y-111547619D01*
X129123809Y-111395238D01*
X129047619Y-111090476D01*
X129047619Y-110557143D01*
X129123809Y-110252381D01*
X129276190Y-110100000D01*
X129428571Y-110023810D01*
X130723809Y-111166667D02*
X131485714Y-111166667D01*
X130571428Y-111623810D02*
X131104761Y-110023810D01*
X131638095Y-111623810D01*
X133085714Y-111623810D02*
X132552381Y-110861905D01*
X132171428Y-111623810D02*
X132171428Y-110023810D01*
X132780952Y-110023810D01*
X132933333Y-110100000D01*
X133009524Y-110176190D01*
X133085714Y-110328571D01*
X133085714Y-110557143D01*
X133009524Y-110709524D01*
X132933333Y-110785714D01*
X132780952Y-110861905D01*
X132171428Y-110861905D01*
X133771428Y-111623810D02*
X133771428Y-110023810D01*
X134152381Y-110023810D01*
X134380952Y-110100000D01*
X134533333Y-110252381D01*
X134609524Y-110404762D01*
X134685714Y-110709524D01*
X134685714Y-110938095D01*
X134609524Y-111242857D01*
X134533333Y-111395238D01*
X134380952Y-111547619D01*
X134152381Y-111623810D01*
X133771428Y-111623810D01*
X137504762Y-111623810D02*
X136971429Y-110861905D01*
X136590476Y-111623810D02*
X136590476Y-110023810D01*
X137200000Y-110023810D01*
X137352381Y-110100000D01*
X137428572Y-110176190D01*
X137504762Y-110328571D01*
X137504762Y-110557143D01*
X137428572Y-110709524D01*
X137352381Y-110785714D01*
X137200000Y-110861905D01*
X136590476Y-110861905D01*
X138190476Y-110785714D02*
X138723810Y-110785714D01*
X138952381Y-111623810D02*
X138190476Y-111623810D01*
X138190476Y-110023810D01*
X138952381Y-110023810D01*
X139409524Y-110023810D02*
X139942857Y-111623810D01*
X140476191Y-110023810D01*
X142152382Y-111166667D02*
X142914287Y-111166667D01*
X142000001Y-111623810D02*
X142533334Y-110023810D01*
X143066668Y-111623810D01*
M02*
