G04 #@! TF.FileFunction,Copper,L1,Top,Signal*
%FSLAX46Y46*%
G04 Gerber Fmt 4.6, Leading zero omitted, Abs format (unit mm)*
G04 Created by KiCad (PCBNEW 4.0.6) date 05/07/18 15:35:03*
%MOMM*%
%LPD*%
G01*
G04 APERTURE LIST*
%ADD10C,0.100000*%
%ADD11R,0.610000X2.000000*%
%ADD12R,2.680000X3.600000*%
%ADD13R,1.000000X3.500000*%
%ADD14R,1.500000X3.400000*%
%ADD15C,0.500000*%
G04 APERTURE END LIST*
D10*
D11*
X132000000Y-110800000D03*
X131000000Y-110800000D03*
X130000000Y-110800000D03*
X129000000Y-110800000D03*
X128000000Y-110800000D03*
X127000000Y-110800000D03*
X126000000Y-110800000D03*
X125000000Y-110800000D03*
X124000000Y-110800000D03*
X123000000Y-110800000D03*
X122000000Y-110800000D03*
X121000000Y-110800000D03*
X120000000Y-110800000D03*
X119000000Y-110800000D03*
X118000000Y-110800000D03*
D12*
X134990000Y-108000000D03*
X115010000Y-108000000D03*
D13*
X150250000Y-111625000D03*
X148250000Y-111625000D03*
X146250000Y-111625000D03*
D14*
X152600000Y-105875000D03*
X143900000Y-105875000D03*
D11*
X118000000Y-124200000D03*
X119000000Y-124200000D03*
X120000000Y-124200000D03*
X121000000Y-124200000D03*
X122000000Y-124200000D03*
X123000000Y-124200000D03*
X124000000Y-124200000D03*
X125000000Y-124200000D03*
X126000000Y-124200000D03*
X127000000Y-124200000D03*
X128000000Y-124200000D03*
X129000000Y-124200000D03*
X130000000Y-124200000D03*
X131000000Y-124200000D03*
X132000000Y-124200000D03*
X133000000Y-124200000D03*
X134000000Y-124200000D03*
X135000000Y-124200000D03*
X136000000Y-124200000D03*
X137000000Y-124200000D03*
D12*
X115010000Y-127000000D03*
X139990000Y-127000000D03*
D15*
X132000000Y-110800000D02*
X132000000Y-124200000D01*
X131000000Y-110800000D02*
X131000000Y-124200000D01*
X130000000Y-110800000D02*
X130000000Y-124200000D01*
X129000000Y-110800000D02*
X129000000Y-124200000D01*
X128000000Y-110800000D02*
X128000000Y-124200000D01*
X127000000Y-110800000D02*
X127000000Y-124200000D01*
X126000000Y-110800000D02*
X126000000Y-124200000D01*
X125000000Y-110800000D02*
X125000000Y-124200000D01*
X124000000Y-110800000D02*
X124000000Y-124200000D01*
X123000000Y-110800000D02*
X123000000Y-124200000D01*
X122000000Y-110800000D02*
X122000000Y-124200000D01*
X121000000Y-110800000D02*
X121000000Y-124200000D01*
X120000000Y-110800000D02*
X120000000Y-124200000D01*
X119000000Y-110800000D02*
X119000000Y-124200000D01*
X118000000Y-110800000D02*
X118000000Y-124200000D01*
X150250000Y-111625000D02*
X150250000Y-114750000D01*
X150000000Y-115000000D02*
X146500000Y-118500000D01*
X150250000Y-114750000D02*
X150000000Y-115000000D01*
X146500000Y-118500000D02*
X138000000Y-118500000D01*
X138000000Y-118500000D02*
X137000000Y-119500000D01*
X137000000Y-119500000D02*
X137000000Y-124200000D01*
X148250000Y-111625000D02*
X148250000Y-114250000D01*
X148000000Y-114500000D02*
X145000000Y-117500000D01*
X148250000Y-114250000D02*
X148000000Y-114500000D01*
X145000000Y-117500000D02*
X137500000Y-117500000D01*
X137500000Y-117500000D02*
X136000000Y-119000000D01*
X136000000Y-119000000D02*
X136000000Y-124200000D01*
X146250000Y-111625000D02*
X146250000Y-114250000D01*
X146000000Y-114500000D02*
X144000000Y-116500000D01*
X146250000Y-114250000D02*
X146000000Y-114500000D01*
X144000000Y-116500000D02*
X137000000Y-116500000D01*
X137000000Y-116500000D02*
X135000000Y-118500000D01*
X135000000Y-118500000D02*
X135000000Y-124200000D01*
M02*
