G04 #@! TF.FileFunction,Legend,Top*
%FSLAX46Y46*%
G04 Gerber Fmt 4.6, Leading zero omitted, Abs format (unit mm)*
G04 Created by KiCad (PCBNEW 4.0.6) date 05/07/18 15:35:04*
%MOMM*%
%LPD*%
G01*
G04 APERTURE LIST*
%ADD10C,0.100000*%
%ADD11C,0.300000*%
%ADD12C,0.120000*%
%ADD13C,0.150000*%
G04 APERTURE END LIST*
D10*
D11*
X107095237Y-119064286D02*
X106999999Y-119159524D01*
X106714284Y-119254762D01*
X106523808Y-119254762D01*
X106238094Y-119159524D01*
X106047618Y-118969048D01*
X105952379Y-118778571D01*
X105857141Y-118397619D01*
X105857141Y-118111905D01*
X105952379Y-117730952D01*
X106047618Y-117540476D01*
X106238094Y-117350000D01*
X106523808Y-117254762D01*
X106714284Y-117254762D01*
X106999999Y-117350000D01*
X107095237Y-117445238D01*
X107857141Y-118683333D02*
X108809522Y-118683333D01*
X107666665Y-119254762D02*
X108333332Y-117254762D01*
X108999999Y-119254762D01*
X109666665Y-119254762D02*
X109666665Y-117254762D01*
X110333332Y-118683333D01*
X110999999Y-117254762D01*
X110999999Y-119254762D01*
X111952379Y-118207143D02*
X112619046Y-118207143D01*
X112904760Y-119254762D02*
X111952379Y-119254762D01*
X111952379Y-117254762D01*
X112904760Y-117254762D01*
X114904761Y-119254762D02*
X114238094Y-118302381D01*
X113761903Y-119254762D02*
X113761903Y-117254762D01*
X114523808Y-117254762D01*
X114714284Y-117350000D01*
X114809523Y-117445238D01*
X114904761Y-117635714D01*
X114904761Y-117921429D01*
X114809523Y-118111905D01*
X114714284Y-118207143D01*
X114523808Y-118302381D01*
X113761903Y-118302381D01*
X115666665Y-118683333D02*
X116619046Y-118683333D01*
X115476189Y-119254762D02*
X116142856Y-117254762D01*
X116809523Y-119254762D01*
X118904761Y-118683333D02*
X119857142Y-118683333D01*
X118714285Y-119254762D02*
X119380952Y-117254762D01*
X120047619Y-119254762D01*
X120714285Y-119254762D02*
X120714285Y-117254762D01*
X121857143Y-119254762D01*
X121857143Y-117254762D01*
X122809523Y-119254762D02*
X122809523Y-117254762D01*
X123285714Y-117254762D01*
X123571428Y-117350000D01*
X123761904Y-117540476D01*
X123857143Y-117730952D01*
X123952381Y-118111905D01*
X123952381Y-118397619D01*
X123857143Y-118778571D01*
X123761904Y-118969048D01*
X123571428Y-119159524D01*
X123285714Y-119254762D01*
X122809523Y-119254762D01*
X126333333Y-119254762D02*
X126333333Y-117254762D01*
X127000000Y-118683333D01*
X127666667Y-117254762D01*
X127666667Y-119254762D01*
X129000000Y-117254762D02*
X129380952Y-117254762D01*
X129571428Y-117350000D01*
X129761905Y-117540476D01*
X129857143Y-117921429D01*
X129857143Y-118588095D01*
X129761905Y-118969048D01*
X129571428Y-119159524D01*
X129380952Y-119254762D01*
X129000000Y-119254762D01*
X128809524Y-119159524D01*
X128619047Y-118969048D01*
X128523809Y-118588095D01*
X128523809Y-117921429D01*
X128619047Y-117540476D01*
X128809524Y-117350000D01*
X129000000Y-117254762D01*
X130428571Y-117254762D02*
X131571428Y-117254762D01*
X131000000Y-119254762D02*
X131000000Y-117254762D01*
X132238095Y-119254762D02*
X132238095Y-117254762D01*
X133571429Y-117254762D02*
X133952381Y-117254762D01*
X134142857Y-117350000D01*
X134333334Y-117540476D01*
X134428572Y-117921429D01*
X134428572Y-118588095D01*
X134333334Y-118969048D01*
X134142857Y-119159524D01*
X133952381Y-119254762D01*
X133571429Y-119254762D01*
X133380953Y-119159524D01*
X133190476Y-118969048D01*
X133095238Y-118588095D01*
X133095238Y-117921429D01*
X133190476Y-117540476D01*
X133380953Y-117350000D01*
X133571429Y-117254762D01*
X135285714Y-119254762D02*
X135285714Y-117254762D01*
X136428572Y-119254762D01*
X136428572Y-117254762D01*
X139571429Y-118207143D02*
X139857143Y-118302381D01*
X139952382Y-118397619D01*
X140047620Y-118588095D01*
X140047620Y-118873810D01*
X139952382Y-119064286D01*
X139857143Y-119159524D01*
X139666667Y-119254762D01*
X138904762Y-119254762D01*
X138904762Y-117254762D01*
X139571429Y-117254762D01*
X139761905Y-117350000D01*
X139857143Y-117445238D01*
X139952382Y-117635714D01*
X139952382Y-117826190D01*
X139857143Y-118016667D01*
X139761905Y-118111905D01*
X139571429Y-118207143D01*
X138904762Y-118207143D01*
X141285715Y-117254762D02*
X141666667Y-117254762D01*
X141857143Y-117350000D01*
X142047620Y-117540476D01*
X142142858Y-117921429D01*
X142142858Y-118588095D01*
X142047620Y-118969048D01*
X141857143Y-119159524D01*
X141666667Y-119254762D01*
X141285715Y-119254762D01*
X141095239Y-119159524D01*
X140904762Y-118969048D01*
X140809524Y-118588095D01*
X140809524Y-117921429D01*
X140904762Y-117540476D01*
X141095239Y-117350000D01*
X141285715Y-117254762D01*
X142904762Y-118683333D02*
X143857143Y-118683333D01*
X142714286Y-119254762D02*
X143380953Y-117254762D01*
X144047620Y-119254762D01*
X145857144Y-119254762D02*
X145190477Y-118302381D01*
X144714286Y-119254762D02*
X144714286Y-117254762D01*
X145476191Y-117254762D01*
X145666667Y-117350000D01*
X145761906Y-117445238D01*
X145857144Y-117635714D01*
X145857144Y-117921429D01*
X145761906Y-118111905D01*
X145666667Y-118207143D01*
X145476191Y-118302381D01*
X144714286Y-118302381D01*
X146714286Y-119254762D02*
X146714286Y-117254762D01*
X147190477Y-117254762D01*
X147476191Y-117350000D01*
X147666667Y-117540476D01*
X147761906Y-117730952D01*
X147857144Y-118111905D01*
X147857144Y-118397619D01*
X147761906Y-118778571D01*
X147666667Y-118969048D01*
X147476191Y-119159524D01*
X147190477Y-119254762D01*
X146714286Y-119254762D01*
X151380954Y-119254762D02*
X150714287Y-118302381D01*
X150238096Y-119254762D02*
X150238096Y-117254762D01*
X151000001Y-117254762D01*
X151190477Y-117350000D01*
X151285716Y-117445238D01*
X151380954Y-117635714D01*
X151380954Y-117921429D01*
X151285716Y-118111905D01*
X151190477Y-118207143D01*
X151000001Y-118302381D01*
X150238096Y-118302381D01*
X152238096Y-118207143D02*
X152904763Y-118207143D01*
X153190477Y-119254762D02*
X152238096Y-119254762D01*
X152238096Y-117254762D01*
X153190477Y-117254762D01*
X153761906Y-117254762D02*
X154428573Y-119254762D01*
X155095240Y-117254762D01*
X157190478Y-118683333D02*
X158142859Y-118683333D01*
X157000002Y-119254762D02*
X157666669Y-117254762D01*
X158333336Y-119254762D01*
D12*
X114455000Y-105940000D02*
X114455000Y-105400000D01*
X114455000Y-105400000D02*
X113430000Y-105400000D01*
X113430000Y-105400000D02*
X113430000Y-104290000D01*
X113430000Y-104290000D02*
X136570000Y-104290000D01*
X136570000Y-104290000D02*
X136570000Y-105400000D01*
X136570000Y-105400000D02*
X135545000Y-105400000D01*
X135545000Y-105400000D02*
X135545000Y-105940000D01*
X133390000Y-109910000D02*
X132565000Y-109910000D01*
X132565000Y-109910000D02*
X132565000Y-111710000D01*
X117435000Y-109910000D02*
X116610000Y-109910000D01*
X151025000Y-110475000D02*
X152300000Y-110475000D01*
X152300000Y-110475000D02*
X152300000Y-112075000D01*
X152300000Y-112075000D02*
X153300000Y-112075000D01*
X153300000Y-112075000D02*
X153300000Y-107850000D01*
X143200000Y-107850000D02*
X143200000Y-112075000D01*
X143200000Y-112075000D02*
X144200000Y-112075000D01*
X144200000Y-112075000D02*
X144200000Y-110475000D01*
X144200000Y-110475000D02*
X145475000Y-110475000D01*
X151575000Y-104275000D02*
X144925000Y-104275000D01*
X151025000Y-110475000D02*
X151025000Y-113375000D01*
X140545000Y-129060000D02*
X140545000Y-129600000D01*
X140545000Y-129600000D02*
X141570000Y-129600000D01*
X141570000Y-129600000D02*
X141570000Y-130710000D01*
X141570000Y-130710000D02*
X113430000Y-130710000D01*
X113430000Y-130710000D02*
X113430000Y-129600000D01*
X113430000Y-129600000D02*
X114455000Y-129600000D01*
X114455000Y-129600000D02*
X114455000Y-129060000D01*
X116610000Y-125090000D02*
X117435000Y-125090000D01*
X117435000Y-125090000D02*
X117435000Y-123290000D01*
X137565000Y-125090000D02*
X138390000Y-125090000D01*
D13*
X120166667Y-112452381D02*
X120166667Y-113166667D01*
X120119047Y-113309524D01*
X120023809Y-113404762D01*
X119880952Y-113452381D01*
X119785714Y-113452381D01*
X121166667Y-113452381D02*
X120595238Y-113452381D01*
X120880952Y-113452381D02*
X120880952Y-112452381D01*
X120785714Y-112595238D01*
X120690476Y-112690476D01*
X120595238Y-112738095D01*
X126428572Y-113357143D02*
X126380953Y-113404762D01*
X126238096Y-113452381D01*
X126142858Y-113452381D01*
X126000000Y-113404762D01*
X125904762Y-113309524D01*
X125857143Y-113214286D01*
X125809524Y-113023810D01*
X125809524Y-112880952D01*
X125857143Y-112690476D01*
X125904762Y-112595238D01*
X126000000Y-112500000D01*
X126142858Y-112452381D01*
X126238096Y-112452381D01*
X126380953Y-112500000D01*
X126428572Y-112547619D01*
X126809524Y-113166667D02*
X127285715Y-113166667D01*
X126714286Y-113452381D02*
X127047619Y-112452381D01*
X127380953Y-113452381D01*
X127714286Y-113452381D02*
X127714286Y-112452381D01*
X128047620Y-113166667D01*
X128380953Y-112452381D01*
X128380953Y-113452381D01*
X128857143Y-112928571D02*
X129190477Y-112928571D01*
X129333334Y-113452381D02*
X128857143Y-113452381D01*
X128857143Y-112452381D01*
X129333334Y-112452381D01*
X130333334Y-113452381D02*
X130000000Y-112976190D01*
X129761905Y-113452381D02*
X129761905Y-112452381D01*
X130142858Y-112452381D01*
X130238096Y-112500000D01*
X130285715Y-112547619D01*
X130333334Y-112642857D01*
X130333334Y-112785714D01*
X130285715Y-112880952D01*
X130238096Y-112928571D01*
X130142858Y-112976190D01*
X129761905Y-112976190D01*
X130714286Y-113166667D02*
X131190477Y-113166667D01*
X130619048Y-113452381D02*
X130952381Y-112452381D01*
X131285715Y-113452381D01*
X144166667Y-114202381D02*
X144166667Y-114916667D01*
X144119047Y-115059524D01*
X144023809Y-115154762D01*
X143880952Y-115202381D01*
X143785714Y-115202381D01*
X144595238Y-114297619D02*
X144642857Y-114250000D01*
X144738095Y-114202381D01*
X144976191Y-114202381D01*
X145071429Y-114250000D01*
X145119048Y-114297619D01*
X145166667Y-114392857D01*
X145166667Y-114488095D01*
X145119048Y-114630952D01*
X144547619Y-115202381D01*
X145166667Y-115202381D01*
X147476191Y-115202381D02*
X147476191Y-114202381D01*
X147809525Y-114916667D01*
X148142858Y-114202381D01*
X148142858Y-115202381D01*
X148809524Y-114202381D02*
X149000001Y-114202381D01*
X149095239Y-114250000D01*
X149190477Y-114345238D01*
X149238096Y-114535714D01*
X149238096Y-114869048D01*
X149190477Y-115059524D01*
X149095239Y-115154762D01*
X149000001Y-115202381D01*
X148809524Y-115202381D01*
X148714286Y-115154762D01*
X148619048Y-115059524D01*
X148571429Y-114869048D01*
X148571429Y-114535714D01*
X148619048Y-114345238D01*
X148714286Y-114250000D01*
X148809524Y-114202381D01*
X149523810Y-114202381D02*
X150095239Y-114202381D01*
X149809524Y-115202381D02*
X149809524Y-114202381D01*
X150428572Y-115202381D02*
X150428572Y-114202381D01*
X151095238Y-114202381D02*
X151285715Y-114202381D01*
X151380953Y-114250000D01*
X151476191Y-114345238D01*
X151523810Y-114535714D01*
X151523810Y-114869048D01*
X151476191Y-115059524D01*
X151380953Y-115154762D01*
X151285715Y-115202381D01*
X151095238Y-115202381D01*
X151000000Y-115154762D01*
X150904762Y-115059524D01*
X150857143Y-114869048D01*
X150857143Y-114535714D01*
X150904762Y-114345238D01*
X151000000Y-114250000D01*
X151095238Y-114202381D01*
X151952381Y-115202381D02*
X151952381Y-114202381D01*
X152523810Y-115202381D01*
X152523810Y-114202381D01*
X120166667Y-121452381D02*
X120166667Y-122166667D01*
X120119047Y-122309524D01*
X120023809Y-122404762D01*
X119880952Y-122452381D01*
X119785714Y-122452381D01*
X120547619Y-121452381D02*
X121166667Y-121452381D01*
X120833333Y-121833333D01*
X120976191Y-121833333D01*
X121071429Y-121880952D01*
X121119048Y-121928571D01*
X121166667Y-122023810D01*
X121166667Y-122261905D01*
X121119048Y-122357143D01*
X121071429Y-122404762D01*
X120976191Y-122452381D01*
X120690476Y-122452381D01*
X120595238Y-122404762D01*
X120547619Y-122357143D01*
X123547620Y-122357143D02*
X123500001Y-122404762D01*
X123357144Y-122452381D01*
X123261906Y-122452381D01*
X123119048Y-122404762D01*
X123023810Y-122309524D01*
X122976191Y-122214286D01*
X122928572Y-122023810D01*
X122928572Y-121880952D01*
X122976191Y-121690476D01*
X123023810Y-121595238D01*
X123119048Y-121500000D01*
X123261906Y-121452381D01*
X123357144Y-121452381D01*
X123500001Y-121500000D01*
X123547620Y-121547619D01*
X123928572Y-122166667D02*
X124404763Y-122166667D01*
X123833334Y-122452381D02*
X124166667Y-121452381D01*
X124500001Y-122452381D01*
X124833334Y-122452381D02*
X124833334Y-121452381D01*
X125166668Y-122166667D01*
X125500001Y-121452381D01*
X125500001Y-122452381D01*
X125976191Y-121928571D02*
X126309525Y-121928571D01*
X126452382Y-122452381D02*
X125976191Y-122452381D01*
X125976191Y-121452381D01*
X126452382Y-121452381D01*
X127452382Y-122452381D02*
X127119048Y-121976190D01*
X126880953Y-122452381D02*
X126880953Y-121452381D01*
X127261906Y-121452381D01*
X127357144Y-121500000D01*
X127404763Y-121547619D01*
X127452382Y-121642857D01*
X127452382Y-121785714D01*
X127404763Y-121880952D01*
X127357144Y-121928571D01*
X127261906Y-121976190D01*
X126880953Y-121976190D01*
X127833334Y-122166667D02*
X128309525Y-122166667D01*
X127738096Y-122452381D02*
X128071429Y-121452381D01*
X128404763Y-122452381D01*
X128738096Y-122071429D02*
X129500001Y-122071429D01*
X129119049Y-122452381D02*
X129119049Y-121690476D01*
X129976191Y-122452381D02*
X129976191Y-121452381D01*
X130309525Y-122166667D01*
X130642858Y-121452381D01*
X130642858Y-122452381D01*
X131309524Y-121452381D02*
X131500001Y-121452381D01*
X131595239Y-121500000D01*
X131690477Y-121595238D01*
X131738096Y-121785714D01*
X131738096Y-122119048D01*
X131690477Y-122309524D01*
X131595239Y-122404762D01*
X131500001Y-122452381D01*
X131309524Y-122452381D01*
X131214286Y-122404762D01*
X131119048Y-122309524D01*
X131071429Y-122119048D01*
X131071429Y-121785714D01*
X131119048Y-121595238D01*
X131214286Y-121500000D01*
X131309524Y-121452381D01*
X132023810Y-121452381D02*
X132595239Y-121452381D01*
X132309524Y-122452381D02*
X132309524Y-121452381D01*
X132928572Y-122452381D02*
X132928572Y-121452381D01*
X133595238Y-121452381D02*
X133785715Y-121452381D01*
X133880953Y-121500000D01*
X133976191Y-121595238D01*
X134023810Y-121785714D01*
X134023810Y-122119048D01*
X133976191Y-122309524D01*
X133880953Y-122404762D01*
X133785715Y-122452381D01*
X133595238Y-122452381D01*
X133500000Y-122404762D01*
X133404762Y-122309524D01*
X133357143Y-122119048D01*
X133357143Y-121785714D01*
X133404762Y-121595238D01*
X133500000Y-121500000D01*
X133595238Y-121452381D01*
X134452381Y-122452381D02*
X134452381Y-121452381D01*
X135023810Y-122452381D01*
X135023810Y-121452381D01*
M02*
