G04 #@! TF.FileFunction,Copper,L1,Top,Signal*
%FSLAX46Y46*%
G04 Gerber Fmt 4.6, Leading zero omitted, Abs format (unit mm)*
G04 Created by KiCad (PCBNEW 4.0.6) date 05/08/18 08:07:22*
%MOMM*%
%LPD*%
G01*
G04 APERTURE LIST*
%ADD10C,0.100000*%
%ADD11R,0.610000X2.000000*%
%ADD12R,2.680000X3.600000*%
%ADD13R,1.000000X3.500000*%
%ADD14R,1.500000X3.400000*%
%ADD15C,0.500000*%
G04 APERTURE END LIST*
D10*
D11*
X126250000Y-108550000D03*
X125250000Y-108550000D03*
X124250000Y-108550000D03*
X123250000Y-108550000D03*
X122250000Y-108550000D03*
X121250000Y-108550000D03*
X120250000Y-108550000D03*
X119250000Y-108550000D03*
X118250000Y-108550000D03*
X117250000Y-108550000D03*
X116250000Y-108550000D03*
X115250000Y-108550000D03*
X114250000Y-108550000D03*
X113250000Y-108550000D03*
X112250000Y-108550000D03*
D12*
X129240000Y-105750000D03*
X109260000Y-105750000D03*
D13*
X140750000Y-109375000D03*
X138750000Y-109375000D03*
X136750000Y-109375000D03*
D14*
X143100000Y-103625000D03*
X134400000Y-103625000D03*
D11*
X112250000Y-113450000D03*
X113250000Y-113450000D03*
X114250000Y-113450000D03*
X115250000Y-113450000D03*
X116250000Y-113450000D03*
X117250000Y-113450000D03*
X118250000Y-113450000D03*
X119250000Y-113450000D03*
X120250000Y-113450000D03*
X121250000Y-113450000D03*
X122250000Y-113450000D03*
X123250000Y-113450000D03*
X124250000Y-113450000D03*
X125250000Y-113450000D03*
X126250000Y-113450000D03*
X127250000Y-113450000D03*
X128250000Y-113450000D03*
X129250000Y-113450000D03*
X130250000Y-113450000D03*
X131250000Y-113450000D03*
D12*
X109260000Y-116250000D03*
X134240000Y-116250000D03*
D15*
X126250000Y-108550000D02*
X126250000Y-113450000D01*
X125250000Y-108550000D02*
X125250000Y-113450000D01*
X124250000Y-108550000D02*
X124250000Y-113450000D01*
X123250000Y-108550000D02*
X123250000Y-113450000D01*
X122250000Y-108550000D02*
X122250000Y-113450000D01*
X121250000Y-108550000D02*
X121250000Y-113450000D01*
X120250000Y-108550000D02*
X120250000Y-113450000D01*
X119250000Y-108550000D02*
X119250000Y-113450000D01*
X118250000Y-108550000D02*
X118250000Y-113450000D01*
X117250000Y-108550000D02*
X117250000Y-113450000D01*
X116250000Y-108550000D02*
X116250000Y-113450000D01*
X115250000Y-108550000D02*
X115250000Y-113450000D01*
X114250000Y-108550000D02*
X114250000Y-113450000D01*
X113250000Y-108550000D02*
X113250000Y-113450000D01*
X112250000Y-108550000D02*
X112250000Y-113450000D01*
X140750000Y-109375000D02*
X140750000Y-112000000D01*
X139300000Y-113450000D02*
X131250000Y-113450000D01*
X140750000Y-112000000D02*
X139300000Y-113450000D01*
X138750000Y-109375000D02*
X138750000Y-111000000D01*
X138750000Y-111000000D02*
X137500000Y-112250000D01*
X137500000Y-112250000D02*
X135250000Y-112250000D01*
X135250000Y-112250000D02*
X133750000Y-110750000D01*
X133750000Y-110750000D02*
X131000000Y-110750000D01*
X131000000Y-110750000D02*
X130250000Y-111500000D01*
X130250000Y-111500000D02*
X130250000Y-113450000D01*
X136750000Y-109375000D02*
X130375000Y-109375000D01*
X129250000Y-110500000D02*
X129250000Y-113450000D01*
X130375000Y-109375000D02*
X129250000Y-110500000D01*
M02*
